<svg width="25" height="25" viewBox="0 0 25 25" fill="none" xmlns="http://www.w3.org/2000/svg">
<path d="M4.85023 15.5555H2.00548C1.92314 15.5382 1.83816 15.5374 1.75551 15.5532C1.67286 15.569 1.59418 15.6011 1.52407 15.6477C1.45396 15.6942 1.39381 15.7542 1.34714 15.8243C1.30047 15.8943 1.2682 15.9729 1.25223 16.0555H1.24048V18.8055H1.25948C1.28892 18.9276 1.35406 19.0381 1.44659 19.123C1.53912 19.2078 1.65484 19.2632 1.77898 19.282V19.3055H6.02898V19.2903C6.46373 19.285 6.83648 19.0383 7.02948 18.6795L9.65748 16.0515L7.00598 13.3998L4.85023 15.5555Z" fill="black"/>
<path d="M23.6627 7.69402L19.0092 4.37902C18.9618 4.3448 18.9059 4.32446 18.8476 4.32031C18.7894 4.31616 18.7311 4.32835 18.6794 4.35552C18.6271 4.38274 18.5833 4.42392 18.553 4.47449C18.5226 4.52505 18.5069 4.58304 18.5074 4.64202L18.5079 6.04177H14.7789V6.04827C14.5218 6.06216 14.2768 6.16239 14.0837 6.33277L14.0784 6.32752L11.4304 8.97502L14.0822 11.6268L15.9174 9.79152H18.5094L18.5099 11.2928C18.5099 11.413 18.5777 11.5238 18.6849 11.5793C18.7922 11.6348 18.9214 11.625 19.0199 11.5545L23.6639 8.21802C23.7484 8.15777 23.7792 8.06027 23.7792 7.95652V7.95577C23.7789 7.85152 23.7477 7.75427 23.6627 7.69402Z" fill="black"/>
<path d="M23.6444 16.7815L19.0004 13.4453C18.9523 13.4108 18.8956 13.3903 18.8365 13.386C18.7775 13.3816 18.7184 13.3936 18.6657 13.4207C18.6131 13.4477 18.5689 13.4888 18.538 13.5393C18.5071 13.5898 18.4908 13.6478 18.4907 13.707L18.4902 15.2083H15.8979L7.00995 6.32027C6.81695 5.96152 6.4442 5.71502 6.0097 5.70977V5.69452H1.7597V5.71802C1.63556 5.73683 1.51984 5.7922 1.42731 5.87707C1.33478 5.96194 1.26964 6.07246 1.2402 6.19452H1.22095V8.94452H1.2332C1.24914 9.02716 1.28139 9.10579 1.32805 9.17583C1.37471 9.24587 1.43486 9.30592 1.50498 9.35246C1.5751 9.39901 1.65379 9.43112 1.73645 9.44693C1.81912 9.46273 1.9041 9.46191 1.98645 9.44452H4.83095L14.0592 18.6728L14.0644 18.6675C14.2577 18.8378 14.5027 18.9381 14.7599 18.952V18.9585H18.4889L18.4884 20.3583C18.4884 20.4793 18.5534 20.5903 18.6604 20.6448C18.7121 20.6721 18.7704 20.6844 18.8286 20.6803C18.8869 20.6762 18.9429 20.6558 18.9902 20.6215L23.6437 17.3065C23.7287 17.246 23.7599 17.1488 23.7599 17.0443V17.0433C23.7597 16.9395 23.7289 16.8418 23.6444 16.7815Z" fill="black"/>
</svg>
