<svg width="35" height="35" viewBox="0 0 35 35" fill="none" xmlns="http://www.w3.org/2000/svg">
<rect width="35" height="35" rx="17.5" fill="#F1E4D8"/>
<path d="M9.85023 20.5555H7.00548C6.92314 20.5382 6.83816 20.5374 6.75551 20.5532C6.67286 20.569 6.59418 20.6011 6.52407 20.6477C6.45396 20.6942 6.39381 20.7542 6.34714 20.8243C6.30047 20.8943 6.2682 20.9729 6.25223 21.0555H6.24048V23.8055H6.25948C6.28892 23.9276 6.35406 24.0381 6.44659 24.123C6.53912 24.2078 6.65484 24.2632 6.77898 24.282V24.3055H11.029V24.2903C11.4637 24.285 11.8365 24.0383 12.0295 23.6795L14.6575 21.0515L12.006 18.3998L9.85023 20.5555Z" fill="black"/>
<path d="M28.6627 12.694L24.0092 9.37902C23.9618 9.3448 23.9059 9.32446 23.8476 9.32031C23.7894 9.31616 23.7311 9.32835 23.6794 9.35552C23.6271 9.38274 23.5833 9.42392 23.553 9.47449C23.5226 9.52505 23.5069 9.58304 23.5074 9.64202L23.5079 11.0418H19.7789V11.0483C19.5218 11.0622 19.2768 11.1624 19.0837 11.3328L19.0784 11.3275L16.4304 13.975L19.0822 16.6268L20.9174 14.7915H23.5094L23.5099 16.2928C23.5099 16.413 23.5777 16.5238 23.6849 16.5793C23.7922 16.6348 23.9214 16.625 24.0199 16.5545L28.6639 13.218C28.7484 13.1578 28.7792 13.0603 28.7792 12.9565V12.9558C28.7789 12.8515 28.7477 12.7543 28.6627 12.694Z" fill="black"/>
<path d="M28.6444 21.7815L24.0004 18.4453C23.9523 18.4108 23.8956 18.3903 23.8365 18.386C23.7775 18.3816 23.7184 18.3936 23.6657 18.4207C23.6131 18.4477 23.5689 18.4888 23.538 18.5393C23.5071 18.5898 23.4908 18.6478 23.4907 18.707L23.4902 20.2083H20.8979L12.0099 11.3203C11.8169 10.9615 11.4442 10.715 11.0097 10.7098V10.6945H6.7597V10.718C6.63556 10.7368 6.51984 10.7922 6.42731 10.8771C6.33478 10.9619 6.26964 11.0725 6.2402 11.1945H6.22095V13.9445H6.2332C6.24914 14.0272 6.28139 14.1058 6.32805 14.1758C6.37471 14.2459 6.43486 14.3059 6.50498 14.3525C6.5751 14.399 6.65379 14.4311 6.73645 14.4469C6.81912 14.4627 6.9041 14.4619 6.98645 14.4445H9.83095L19.0592 23.6728L19.0644 23.6675C19.2577 23.8378 19.5027 23.9381 19.7599 23.952V23.9585H23.4889L23.4884 25.3583C23.4884 25.4793 23.5534 25.5903 23.6604 25.6448C23.7121 25.6721 23.7704 25.6844 23.8286 25.6803C23.8869 25.6762 23.9429 25.6558 23.9902 25.6215L28.6437 22.3065C28.7287 22.246 28.7599 22.1488 28.7599 22.0443V22.0433C28.7597 21.9395 28.7289 21.8418 28.6444 21.7815Z" fill="black"/>
</svg>
