<svg width="23" height="23" viewBox="0 0 23 23" fill="none" xmlns="http://www.w3.org/2000/svg">
<path d="M18.4494 12.8912C18.4686 12.8529 18.4875 12.8143 18.5057 12.776L20.4844 8.62117V7.59286L20.3468 7.40379C20.3208 7.36812 17.7393 3.82167 16.8646 2.65555C15.896 1.36395 14.9632 0.788009 13.8401 0.788009C12.9641 0.788009 12.0746 1.20439 11.1975 2.02556C10.9871 2.22331 10.7882 2.43286 10.6016 2.65321C10.415 2.43285 10.216 2.22328 10.0056 2.02552C9.12835 1.20434 8.23926 0.787964 7.36305 0.787964C6.24001 0.787964 5.30716 1.36391 4.33851 2.6555C3.46384 3.82167 0.882355 7.36812 0.856346 7.40374L0.71875 7.59286V8.62117L2.69697 12.7754C2.71545 12.8143 2.73435 12.853 2.75367 12.8914C3.2662 13.9106 4.05599 14.7645 5.03219 15.3548C6.00608 15.9451 7.12326 16.2568 8.26208 16.2561H12.941C14.0798 16.2568 15.197 15.9451 16.1708 15.3548C17.1471 14.7644 17.9369 13.9105 18.4494 12.8912ZM8.26217 14.8186C6.4803 14.8186 4.82241 13.8091 4.03861 12.247C4.02379 12.2175 4.00929 12.1878 3.99513 12.158L2.15625 8.29639V8.06073C2.7043 7.30833 4.73638 4.52088 5.48851 3.51796C6.3427 2.37901 6.91545 2.22546 7.36305 2.22546C8.40133 2.22546 9.4928 3.503 9.82504 3.99422L10.0386 4.31249H11.1645L11.3781 3.99422C11.686 3.53534 12.7991 2.22546 13.8401 2.22546C14.2877 2.22546 14.8604 2.37901 15.7146 3.518C16.4667 4.52079 18.4988 7.30833 19.0469 8.06073V8.29639L17.2077 12.1586C17.1936 12.1882 17.1792 12.2178 17.1646 12.2467C16.3807 13.8091 14.7228 14.8186 12.941 14.8186H8.26217Z" fill="black"/>
<path d="M13.6755 5.06946L13.223 5.5813C13.2125 5.5932 12.1308 6.76858 10.6015 6.76858C9.06709 6.76858 7.98861 5.59078 7.98007 5.5813L7.52757 5.06946L3.77026 8.06521L5.76448 12.0878L6.27915 12.0143C9.14617 11.6046 12.0569 11.6046 14.9239 12.0143L15.4386 12.0878L17.4328 8.06521L13.6755 5.06946ZM14.6105 10.5218C11.9485 10.1854 9.25461 10.1854 6.59253 10.5218L5.57343 8.466L7.40813 7.0033C8.01794 7.4987 9.14409 8.20622 10.6015 8.20622C12.059 8.20622 13.1851 7.4987 13.7949 7.0033L15.6296 8.46614L14.6105 10.5218Z" fill="black"/>
<path d="M15.3979 17.224V18.6615C16.493 18.6601 17.5571 18.2982 18.4259 17.6316C19.2947 16.9649 19.9198 16.0308 20.2046 14.9734L18.8156 14.6013C18.6131 15.3531 18.1687 16.0174 17.551 16.4915C16.9333 16.9655 16.1766 17.223 15.3979 17.224Z" fill="black"/>
<path d="M21.5931 15.3455C20.8597 18.0798 18.3604 20.099 15.3979 20.099V21.5365C19.0244 21.5365 22.084 19.0647 22.9817 15.7176L21.5931 15.3455Z" fill="black"/>
</svg>
