<svg width="35" height="35" viewBox="0 0 35 35" fill="none" xmlns="http://www.w3.org/2000/svg">
<rect width="35" height="35" rx="17.5" fill="#F1E4D8"/>
<path d="M24.4494 18.8912C24.4686 18.8529 24.4875 18.8143 24.5057 18.776L26.4844 14.6212V13.5929L26.3468 13.4038C26.3208 13.3681 23.7393 9.82167 22.8646 8.65555C21.896 7.36395 20.9632 6.78801 19.8401 6.78801C18.9641 6.78801 18.0746 7.20439 17.1975 8.02556C16.9871 8.22331 16.7882 8.43286 16.6016 8.65321C16.415 8.43285 16.216 8.22328 16.0056 8.02552C15.1283 7.20434 14.2393 6.78796 13.3631 6.78796C12.24 6.78796 11.3072 7.36391 10.3385 8.6555C9.46384 9.82167 6.88236 13.3681 6.85635 13.4037L6.71875 13.5929V14.6212L8.69697 18.7754C8.71545 18.8143 8.73435 18.853 8.75367 18.8914C9.2662 19.9106 10.056 20.7645 11.0322 21.3548C12.0061 21.9451 13.1233 22.2568 14.2621 22.2561H18.941C20.0798 22.2568 21.197 21.9451 22.1708 21.3548C23.1471 20.7644 23.9369 19.9105 24.4494 18.8912ZM14.2622 20.8186C12.4803 20.8186 10.8224 19.8091 10.0386 18.247C10.0238 18.2175 10.0093 18.1878 9.99513 18.158L8.15625 14.2964V14.0607C8.7043 13.3083 10.7364 10.5209 11.4885 9.51796C12.3427 8.37901 12.9155 8.22546 13.3631 8.22546C14.4013 8.22546 15.4928 9.503 15.825 9.99422L16.0386 10.3125H17.1645L17.3781 9.99422C17.686 9.53534 18.7991 8.22546 19.8401 8.22546C20.2877 8.22546 20.8604 8.37901 21.7146 9.518C22.4667 10.5208 24.4988 13.3083 25.0469 14.0607V14.2964L23.2077 18.1586C23.1936 18.1882 23.1792 18.2178 23.1646 18.2467C22.3807 19.8091 20.7228 20.8186 18.941 20.8186H14.2622Z" fill="black"/>
<path d="M19.6755 11.0695L19.223 11.5813C19.2125 11.5932 18.1308 12.7686 16.6015 12.7686C15.0671 12.7686 13.9886 11.5908 13.9801 11.5813L13.5276 11.0695L9.77026 14.0652L11.7645 18.0878L12.2792 18.0143C15.1462 17.6046 18.0569 17.6046 20.9239 18.0143L21.4386 18.0878L23.4328 14.0652L19.6755 11.0695ZM20.6105 16.5218C17.9485 16.1854 15.2546 16.1854 12.5925 16.5218L11.5734 14.466L13.4081 13.0033C14.0179 13.4987 15.1441 14.2062 16.6015 14.2062C18.059 14.2062 19.1851 13.4987 19.7949 13.0033L21.6296 14.4661L20.6105 16.5218Z" fill="black"/>
<path d="M21.3979 23.224V24.6615C22.493 24.6601 23.5571 24.2982 24.4259 23.6316C25.2947 22.9649 25.9198 22.0308 26.2046 20.9734L24.8156 20.6013C24.6131 21.3531 24.1687 22.0174 23.551 22.4915C22.9333 22.9655 22.1766 23.223 21.3979 23.224Z" fill="black"/>
<path d="M27.5931 21.3455C26.8597 24.0798 24.3604 26.099 21.3979 26.099V27.5365C25.0244 27.5365 28.084 25.0647 28.9817 21.7176L27.5931 21.3455Z" fill="black"/>
</svg>
