<svg width="35" height="35" viewBox="0 0 35 35" fill="none" xmlns="http://www.w3.org/2000/svg">
<rect width="35" height="35" rx="17.5" fill="#F1E4D8"/>
<path d="M20.3333 7.2193V9.10526H14.6667V7.2193H20.3333ZM16.5703 19.4123V13.7982H18.4297V19.4123H16.5703ZM24.1406 13.2281C25.3802 14.7485 26 16.4883 26 18.4474C26 20.7866 25.1736 22.7749 23.5208 24.4123C21.8681 26.0497 19.8611 26.8684 17.5 26.8684C15.1389 26.8684 13.1319 26.0497 11.4792 24.4123C9.82639 22.7749 9 20.7939 9 18.4693C9 16.1447 9.82639 14.1564 11.4792 12.5044C13.1319 10.8523 15.1389 10.0263 17.5 10.0263C19.4774 10.0263 21.2483 10.655 22.8125 11.9123L24.1406 10.5526C24.6128 10.9327 25.0556 11.3713 25.4688 11.8684L24.1406 13.2281ZM17.5 25.0263C19.3299 25.0263 20.8867 24.383 22.1706 23.0965C23.4544 21.8099 24.0964 20.2602 24.0964 18.4474C24.0964 16.6345 23.4544 15.0921 22.1706 13.8202C20.8867 12.5482 19.3299 11.9123 17.5 11.9123C15.6701 11.9123 14.1133 12.5482 12.8294 13.8202C11.5456 15.0921 10.9036 16.6345 10.9036 18.4474C10.9036 20.2602 11.5456 21.8099 12.8294 23.0965C14.1133 24.383 15.6701 25.0263 17.5 25.0263Z" fill="black"/>
</svg>
