<svg width="17" height="20" viewBox="0 0 17 20" fill="none" xmlns="http://www.w3.org/2000/svg">
<path d="M11.3333 0.219299V2.10526H5.66667V0.219299H11.3333ZM7.57031 12.4123V6.79825H9.42969V12.4123H7.57031ZM15.1406 6.22807C16.3802 7.74854 17 9.48831 17 11.4474C17 13.7866 16.1736 15.7749 14.5208 17.4123C12.8681 19.0497 10.8611 19.8684 8.5 19.8684C6.13889 19.8684 4.13194 19.0497 2.47917 17.4123C0.826389 15.7749 0 13.7939 0 11.4693C0 9.14474 0.826389 7.15643 2.47917 5.50439C4.13194 3.85234 6.13889 3.02632 8.5 3.02632C10.4774 3.02632 12.2483 3.65497 13.8125 4.91228L15.1406 3.55263C15.6128 3.93275 16.0556 4.37135 16.4688 4.86842L15.1406 6.22807ZM8.5 18.0263C10.3299 18.0263 11.8867 17.383 13.1706 16.0965C14.4544 14.8099 15.0964 13.2602 15.0964 11.4474C15.0964 9.6345 14.4544 8.09211 13.1706 6.82018C11.8867 5.54825 10.3299 4.91228 8.5 4.91228C6.67014 4.91228 5.11328 5.54825 3.82943 6.82018C2.54557 8.09211 1.90365 9.6345 1.90365 11.4474C1.90365 13.2602 2.54557 14.8099 3.82943 16.0965C5.11328 17.383 6.67014 18.0263 8.5 18.0263Z" fill="black"/>
</svg>
